<?xml version="1.0" encoding="UTF-8" standalone="no"?>
<!-- Created with Inkscape (http://www.inkscape.org/) -->

<svg
   xmlns:dc="http://purl.org/dc/elements/1.1/"
   xmlns:cc="http://creativecommons.org/ns#"
   xmlns:rdf="http://www.w3.org/1999/02/22-rdf-syntax-ns#"
   xmlns:svg="http://www.w3.org/2000/svg"
   xmlns="http://www.w3.org/2000/svg"
   xmlns:xlink="http://www.w3.org/1999/xlink"
   xmlns:sodipodi="http://sodipodi.sourceforge.net/DTD/sodipodi-0.dtd"
   xmlns:inkscape="http://www.inkscape.org/namespaces/inkscape"
   width="241.28542mm"
   height="66.594315mm"
   viewBox="0 0 854.94832 235.96411"
   id="svg2"
   version="1.1"
   inkscape:version="0.91 r13725"
   sodipodi:docname="scikit-video.svg"
   inkscape:export-filename="/home/leo/scikit-video.png"
   inkscape:export-xdpi="90"
   inkscape:export-ydpi="90">
  <defs
     id="defs4">
    <pattern
       xlink:href="#pattern1929"
       id="pattern1980"
       patternTransform="translate(-50.07238,-102.2896)" />
    <pattern
       xlink:href="#pattern1929"
       id="pattern1976"
       patternTransform="translate(86.65527,-50.07244)" />
    <pattern
       xlink:href="#pattern1929"
       id="pattern1968"
       patternTransform="translate(34.43797,86.65526)" />
    <pattern
       patternUnits="userSpaceOnUse"
       width="8.6623106"
       height="6.9721041"
       patternTransform="translate(34.43797,86.65526)"
       id="pattern1929">
      <rect
         y="0"
         x="0"
         height="6.9721041"
         width="8.6623106"
         id="rect1927"
         style="fill:#4bffff;fill-opacity:1;stroke:none;stroke-width:3;stroke-linecap:round;stroke-linejoin:round;stroke-miterlimit:4;stroke-dasharray:none;stroke-opacity:1" />
    </pattern>
  </defs>
  <sodipodi:namedview
     id="base"
     pagecolor="#ffffff"
     bordercolor="#666666"
     borderopacity="1.0"
     inkscape:pageopacity="0.0"
     inkscape:pageshadow="2"
     inkscape:zoom="1.2763278"
     inkscape:cx="472.49028"
     inkscape:cy="90.435631"
     inkscape:document-units="px"
     inkscape:current-layer="text4367"
     showgrid="false"
     fit-margin-top="0"
     fit-margin-left="0"
     fit-margin-right="0"
     fit-margin-bottom="0"
     inkscape:window-width="1914"
     inkscape:window-height="1050"
     inkscape:window-x="0"
     inkscape:window-y="24"
     inkscape:window-maximized="0" />
  <metadata
     id="metadata7">
    <rdf:RDF>
      <cc:Work
         rdf:about="">
        <dc:format>image/svg+xml</dc:format>
        <dc:type
           rdf:resource="http://purl.org/dc/dcmitype/StillImage" />
        <dc:title></dc:title>
      </cc:Work>
    </rdf:RDF>
  </metadata>
  <g
     inkscape:groupmode="layer"
     id="layer2"
     inkscape:label="gear"
     transform="translate(-62.548997,-179.46711)">
    <path
       style="fill:#d32f2f;fill-opacity:1;fill-rule:nonzero;stroke-width:0;stroke-linecap:butt;stroke-linejoin:miter;stroke-miterlimit:4"
       d="M 111.18164 0.0078125 C 99.386735 0.46546041 99.513475 22.447541 84.267578 19.167969 C 73.059518 16.198049 60.564088 6.7180219 51.210938 19.482422 C 42.916138 28.359332 52.041848 42.196953 39.205078 48.376953 C 30.908978 55.637563 18.007353 46.407384 13.908203 60.277344 C 5.7464931 73.830784 26.375026 84.201669 14.941406 97.537109 C 7.5542363 105.92345 -5.5261675 112.01 2.5390625 125.42773 C 8.7930225 132.77323 18.936478 135.44547 18.048828 147.57812 C 19.256198 158.23667 5.0831713 166.53445 15.769531 176.77344 C 23.502991 189.19743 40.011105 178.17727 45.390625 193.1875 C 51.618065 202.70312 43.507482 216.3577 58.476562 220.07422 C 71.966512 226.45059 84.806151 207.49141 97.769531 220.75195 C 103.79564 227.38142 104.86536 238.35396 117.04297 235.5 C 131.33166 235.02485 128.58766 221.62441 142.83984 217.05078 C 158.69155 212.16247 165.07593 230.30992 177.06836 218.16211 C 189.16579 210.90186 178.88675 197.85767 187.76953 190.51758 C 198.65757 177.61289 218.47432 188.95455 220.68555 169.23242 C 222.72792 158.48095 211.23509 155.93888 214.22266 142.69141 C 218.51819 128.92339 239.92032 127.89601 230.40039 111.66406 C 225.88562 103.46543 215.52613 103.15537 214.25781 93.660156 C 214.08725 93.660728 214.02569 93.66153 213.85156 93.662109 C 207.33797 93.683745 201.57732 93.647382 198.43555 93.580078 C 201.8183 104.81968 202.81585 116.73707 200.76953 128.58594 C 195.6926 169.99629 157.33922 205.78438 114.88281 203.76953 C 75.103332 203.37985 37.518402 172.06565 32.169922 132.22266 C 25.616522 94.891886 45.609809 53.663746 81.074219 38.691406 C 92.003349 33.614836 104.04244 30.812729 116.11328 30.974609 C 144.92698 30.087461 171.6371 46.591938 187.34375 70.166016 C 187.97404 64.979356 190.03195 60.19081 194.07812 57.365234 C 195.71038 56.723414 196.088 56.710938 213.22656 56.710938 C 214.71304 56.710938 215.44157 56.714281 216.6875 56.714844 C 216.00535 56.012354 215.20681 55.310888 214.27539 54.611328 C 205.56192 47.029008 196.91462 55.061142 187.36328 45.357422 C 179.31324 33.434802 188.83236 22.668292 174.88281 15.232422 C 162.05632 9.1299419 156.8999 21.558525 143.17578 18.203125 C 128.7955 12.645605 130.30189 -0.93373313 113.70703 0.21679688 C 112.80665 0.042105625 111.96797 -0.022697361 111.18164 0.0078125 z "
       transform="translate(62.548997,179.46711)"
       id="path2125-5" />
  </g>
  <g
     style="display:none"
     transform="translate(-62.548997,-179.46711)"
     inkscape:label="camera_bg copy"
     id="g4398"
     inkscape:groupmode="layer">
    <path
       style="fill:#ffffff;fill-opacity:1;stroke:none;stroke-width:1;stroke-miterlimit:4;stroke-dasharray:none;stroke-opacity:1"
       d="m 275.7752,236.17863 c -17.13856,0 -17.51586,0.0122 -19.14811,0.65402 -11.94906,8.34442 -6.60454,33.79941 1.86899,36.11454 0.57387,0.13037 8.63178,0.21221 17.90451,0.18141 16.51868,-0.055 16.89386,-0.0689 18.57762,-0.72325 5.57558,-3.32109 6.18057,-6.82175 6.39941,-12.33098 l 8.60236,4.93766 0.0457,-22.56406 -8.64802,6.72759 c -0.0229,-5.24798 -2.21638,-10.52711 -6.39941,-12.32859 -1.69425,-0.65801 -1.96595,-0.66834 -19.20301,-0.66834 z m 15.95198,5.10091 c 2.7095,-1.3e-4 4.90639,2.19569 4.90757,4.90518 1.4e-4,2.71043 -2.19714,4.9077 -4.90757,4.90756 -2.71043,1.4e-4 -4.9077,-2.19713 -4.90756,-4.90756 0.001,-2.70949 2.19806,-4.90531 4.90756,-4.90518 z"
       id="path4400"
       inkscape:connector-curvature="0"
       sodipodi:nodetypes="sccsccccccsccccc" />
  </g>
  <g
     inkscape:label="main"
     inkscape:groupmode="layer"
     id="layer1"
     style="display:inline"
     transform="translate(-62.548997,-179.46711)">
    <path
       style="fill:#e57373;fill-opacity:1"
       d="m 252.29297,272.05859 c -8.68962,7.237 -24.69365,14.52256 -33.72183,11.24752 -8.39626,-2.11339 -12.78629,-10.63189 -18.28012,-16.57564 -5.95763,-7.27522 -12.35914,-17.38578 -23.1543,-16.45313 -13.17399,-0.65893 -23.98481,13.43958 -20.02493,25.98747 1.63471,8.88319 10.47091,12.55487 18.27973,14.38967 11.91395,3.27069 26.23488,4.77178 33.53544,16.16606 8.68678,12.79781 3.52496,31.87369 -9.70254,39.4861 -10.98161,6.54291 -26.70073,5.49016 -35.36552,-4.49316 -6.46279,-6.1368 -7.62567,-18.17183 -17.2788,-20.23627 -9.63453,-0.10964 -30.61668,16.66143 -27.84572,23.21771 21.67394,28.4427 63.99851,37.58467 95.52539,20.82031 33.58566,-16.37544 50.85924,-58.38161 38.0332,-93.55664 z"
       id="path4159"
       inkscape:connector-curvature="0"
       sodipodi:nodetypes="ccccccccccccc" />
    <path
       style="fill:#f44336;fill-opacity:1"
       d="m 179.23047,219.55859 c -35.69478,-0.63304 -69.26502,26.7171 -75.69141,61.88672 -3.32349,16.22199 -1.33088,37.96014 7.76616,50.10418 8.94492,-6.83538 17.95276,-13.68158 27.60494,-19.48894 6.76959,-2.83255 12.74493,0.10594 18.60759,6.19749 6.71283,7.0926 11.25878,16.99646 20.50965,21.19502 12.23486,4.47798 27.62772,-6.89635 24.94706,-20.25087 -0.78801,-10.11997 -10.3985,-15.16183 -19.2461,-16.96988 -10.38702,-3.51633 -22.7276,-4.22834 -30.72881,-12.51734 -9.82823,-12.1862 -8.38013,-32.19894 4.09934,-42.09307 8.29027,-7.87071 20.8334,-8.96414 31.34219,-5.6405 12.34608,5.41503 18.33381,18.56438 27.11617,28.01775 9.73445,10.50052 21.06866,-2.34826 33.61658,-5.7472 -11.93365,-26.90336 -40.57016,-44.98464 -69.94336,-44.69336 z"
       id="path4157"
       inkscape:connector-curvature="0"
       sodipodi:nodetypes="cccccccccccccc" />
    <path
       style="fill:#d32f2f;fill-opacity:1;stroke:none;stroke-width:1;stroke-miterlimit:4;stroke-dasharray:none;stroke-opacity:1"
       d="m 274.51569,239.53702 c -14.02366,0 -14.33238,0.01 -15.66797,0.53515 -9.77734,6.82784 -5.40418,27.65642 1.5293,29.55078 0.46957,0.10668 7.06297,0.17364 14.65039,0.14844 13.51644,-0.045 13.82343,-0.0564 15.20117,-0.5918 4.56223,-2.71749 5.05726,-5.58191 5.23633,-10.08984 l 7.03889,4.04024 0.0374,-18.46307 -7.07626,5.50486 c -0.0187,-4.29417 -1.81356,-8.61383 -5.23633,-10.08789 -1.38632,-0.53842 -1.60864,-0.54687 -15.71289,-0.54687 z m 13.05273,4.17383 c 2.21705,-1.1e-4 4.01466,1.79662 4.01563,4.01367 1.1e-4,2.21781 -1.79782,4.01573 -4.01563,4.01562 -2.21781,1.1e-4 -4.01573,-1.79781 -4.01562,-4.01562 9.7e-4,-2.21705 1.79857,-4.01378 4.01562,-4.01367 z"
       id="path4202"
       inkscape:connector-curvature="0"
       sodipodi:nodetypes="sccsccccccsccccc" />
  </g>
  <g
     inkscape:groupmode="layer"
     id="layer4"
     inkscape:label="text"
     transform="translate(-62.548997,-179.46711)">
    <g
       style="font-style:normal;font-weight:normal;font-size:110.5602417px;line-height:125%;font-family:sans-serif;letter-spacing:0px;word-spacing:0px;fill:#000000;fill-opacity:1;stroke:none;stroke-width:1px;stroke-linecap:butt;stroke-linejoin:miter;stroke-opacity:1"
       id="text4360">
      <path
         d="m 387.60074,294.04617 q 0,8.25962 -6.15423,12.74034 -6.15423,4.48071 -17.27504,4.48071 -11.76862,0 -18.35473,-3.72493 l 0,-8.31361 q 4.26478,2.15938 9.12338,3.40102 4.91259,1.24164 9.44729,1.24164 7.01798,0 10.7969,-2.21336 3.77891,-2.26735 3.77891,-6.85603 0,-3.45501 -3.02313,-5.88431 -2.96915,-2.48329 -11.66065,-5.83032 -8.25963,-3.07712 -11.76862,-5.34447 -3.45501,-2.32133 -5.18251,-5.2365 -1.67352,-2.91516 -1.67352,-6.964 0,-7.23392 5.88431,-11.39072 5.88431,-4.21079 16.14136,-4.21079 9.55526,0 18.67864,3.88688 l -3.18509,7.28791 q -8.90744,-3.67095 -16.14136,-3.67095 -6.37017,0 -9.60924,1.99743 -3.23907,1.99742 -3.23907,5.50642 0,2.37531 1.18766,4.04883 1.24164,1.67352 3.94087,3.18509 2.69922,1.51156 10.36502,4.37274 10.52698,3.8329 14.19792,7.71978 3.72493,3.88689 3.72493,9.7712 z"
         style="fill:#f44336;fill-opacity:1"
         id="path4281" />
      <path
         d="m 425.76778,311.26722 q -12.84831,0 -19.92028,-7.88174 -7.01798,-7.93572 -7.01798,-22.40356 0,-14.84574 7.12595,-22.94341 7.17994,-8.09767 20.40614,-8.09767 4.26477,0 8.52955,0.91773 4.26477,0.91774 6.69407,2.15938 l -2.7532,7.61182 q -2.96915,-1.18766 -6.47814,-1.94345 -3.509,-0.80976 -6.20822,-0.80976 -18.03082,0 -18.03082,22.99739 0,10.90487 4.37274,16.73519 4.42673,5.83033 13.06425,5.83033 7.39588,0 15.16964,-3.18509 l 0,7.93572 q -5.93829,3.07712 -14.9537,3.07712 z"
         style="fill:#f44336;fill-opacity:1"
         id="path4283" />
      <path
         d="m 463.77286,310.18753 -8.96142,0 0,-59.167 8.96142,0 0,59.167 z m -9.71721,-75.2004 q 0,-3.07711 1.51157,-4.48071 1.51156,-1.45758 3.77891,-1.45758 2.15938,0 3.72493,1.45758 1.56555,1.45758 1.56555,4.48071 0,3.02313 -1.56555,4.5347 -1.56555,1.45758 -3.72493,1.45758 -2.26735,0 -3.77891,-1.45758 -1.51157,-1.51157 -1.51157,-4.5347 z"
         style="fill:#f44336;fill-opacity:1"
         id="path4285" />
      <path
         d="m 491.73682,279.90223 q 2.32134,-3.29305 7.07197,-8.63752 l 19.11051,-20.24418 10.63495,0 -23.96912,25.21075 25.64264,33.95625 -10.85089,0 -20.892,-27.96397 -6.74806,5.83033 0,22.13364 -8.85345,0 0,-83.99987 8.85345,0 0,44.53721 q 0,2.96914 -0.43187,9.17736 l 0.43187,0 z"
         style="fill:#f44336;fill-opacity:1"
         id="path4287" />
      <path
         d="m 549.93212,310.18753 -8.96143,0 0,-59.167 8.96143,0 0,59.167 z m -9.71721,-75.2004 q 0,-3.07711 1.51157,-4.48071 1.51156,-1.45758 3.77891,-1.45758 2.15938,0 3.72493,1.45758 1.56555,1.45758 1.56555,4.48071 0,3.02313 -1.56555,4.5347 -1.56555,1.45758 -3.72493,1.45758 -2.26735,0 -3.77891,-1.45758 -1.51157,-1.51157 -1.51157,-4.5347 z"
         style="fill:#f44336;fill-opacity:1"
         id="path4289" />
      <path
         d="m 588.15313,303.87134 q 2.37532,0 4.58868,-0.3239 2.21337,-0.37789 3.509,-0.75579 l 0,6.85604 q -1.45758,0.70179 -4.31876,1.13367 -2.8072,0.48586 -5.07455,0.48586 -17.16706,0 -17.16706,-18.0848 l 0,-35.19789 -8.47557,0 0,-4.31876 8.47557,-3.72493 3.77891,-12.63238 5.18251,0 0,13.71207 17.16707,0 0,6.964 -17.16707,0 0,34.81999 q 0,5.34447 2.53727,8.20565 2.53727,2.86117 6.964,2.86117 z"
         style="fill:#f44336;fill-opacity:1"
         id="path4291" />
      <path
         d="m 603.16083,284.65287 0,-8.20565 26.50638,0 0,8.20565 -26.50638,0 z"
         style="fill:#e57373;fill-opacity:1"
         id="path4293" />
      <path
         d="m 656.71344,310.18753 -22.45755,-59.167 9.60924,0 12.74034,35.08992 q 4.31876,12.30846 5.07454,15.97941 l 0.43188,0 q 0.59383,-2.86118 3.72493,-11.82261 3.18508,-9.01541 14.19792,-39.24672 l 9.60924,0 -22.45755,59.167 -10.47299,0 z"
         style="fill:#d32f2f;fill-opacity:1"
         id="path4295" />
      <path
         d="m 708.21465,310.18753 -8.96143,0 0,-59.167 8.96143,0 0,59.167 z m -9.71721,-75.2004 q 0,-3.07711 1.51157,-4.48071 1.51156,-1.45758 3.77891,-1.45758 2.15938,0 3.72493,1.45758 1.56555,1.45758 1.56555,4.48071 0,3.02313 -1.56555,4.5347 -1.56555,1.45758 -3.72493,1.45758 -2.26735,0 -3.77891,-1.45758 -1.51157,-1.51157 -1.51157,-4.5347 z"
         style="fill:#d32f2f;fill-opacity:1"
         id="path4297" />
      <path
         d="m 767.59759,302.25181 -0.48586,0 q -6.20822,9.01541 -18.57067,9.01541 -11.60667,0 -18.08481,-7.93572 -6.42415,-7.93572 -6.42415,-22.56552 0,-14.6298 6.47814,-22.72747 6.47814,-8.09767 18.03082,-8.09767 12.03854,0 18.4627,8.74548 l 0.70179,0 -0.37789,-4.26477 -0.21593,-4.15681 0,-24.07708 8.96142,0 0,83.99987 -7.28791,0 -1.18765,-7.93572 z m -17.92286,1.51157 q 9.17737,0 13.28019,-4.96658 4.15681,-5.02056 4.15681,-16.14136 l 0,-1.88946 q 0,-12.57839 -4.2108,-17.92285 -4.1568,-5.39845 -13.33417,-5.39845 -7.88173,0 -12.09252,6.15423 -4.15681,6.10025 -4.15681,17.27504 0,11.33674 4.15681,17.11309 4.1568,5.77634 12.20049,5.77634 z"
         style="fill:#d32f2f;fill-opacity:1"
         id="path4299" />
      <path
         d="m 820.12451,311.26722 q -13.11823,0 -20.73005,-7.9897 -7.55783,-7.98971 -7.55783,-22.18763 0,-14.30589 7.01799,-22.72747 7.07197,-8.42158 18.94856,-8.42158 11.1208,0 17.59894,7.34189 6.47814,7.2879 6.47814,19.27246 l 0,5.66837 -40.75829,0 q 0.26992,10.41901 5.23649,15.81746 5.02056,5.39845 14.08996,5.39845 9.55525,0 18.89457,-3.99485 l 0,7.9897 q -4.75064,2.05141 -9.01541,2.91516 -4.21079,0.91774 -10.20307,0.91774 z m -2.4293,-53.82254 q -7.12596,0 -11.39073,4.64267 -4.21079,4.64266 -4.96657,12.84831 l 30.93311,0 q 0,-8.47557 -3.77891,-12.95628 -3.77892,-4.5347 -10.7969,-4.5347 z"
         style="fill:#d32f2f;fill-opacity:1"
         id="path4301" />
      <path
         d="m 908.1732,280.55004 q 0,14.46785 -7.28791,22.61951 -7.2879,8.09767 -20.13621,8.09767 -7.93572,0 -14.08995,-3.72493 -6.15424,-3.72493 -9.50127,-10.68893 -3.34704,-6.964 -3.34704,-16.30332 0,-14.46784 7.23392,-22.51153 7.23392,-8.09767 20.08223,-8.09767 12.41643,0 19.70434,8.25962 7.34189,8.25963 7.34189,22.34958 z m -45.07705,0 q 0,11.33675 4.5347,17.27504 4.53469,5.9383 13.33417,5.9383 8.79947,0 13.33417,-5.88431 4.58868,-5.9383 4.58868,-17.32903 0,-11.28276 -4.58868,-17.11308 -4.5347,-5.88431 -13.44214,-5.88431 -8.79947,0 -13.28019,5.77634 -4.48071,5.77634 -4.48071,17.22105 z"
         style="fill:#d32f2f;fill-opacity:1"
         id="path4303" />
    </g>
    <g
       style="font-style:normal;font-weight:normal;font-size:40.48044968px;line-height:125%;font-family:sans-serif;letter-spacing:0px;word-spacing:0px;fill:#000000;fill-opacity:1;stroke:none;stroke-width:1px;stroke-linecap:butt;stroke-linejoin:miter;stroke-opacity:1"
       id="text4367">
      <text
         xml:space="preserve"
         style="font-style:normal;font-weight:normal;font-size:40px;line-height:125%;font-family:sans-serif;letter-spacing:0px;word-spacing:0px;fill:#000000;fill-opacity:1;stroke:none;stroke-width:1px;stroke-linecap:butt;stroke-linejoin:miter;stroke-opacity:1"
         x="348.5257"
         y="373.12234"
         id="text3539"
         sodipodi:linespacing="125%"><tspan
           sodipodi:role="line"
           id="tspan3541"
           x="348.5257"
           y="373.12234"></tspan></text>
      <text
         xml:space="preserve"
         style="font-style:normal;font-weight:normal;font-size:40px;line-height:125%;font-family:sans-serif;letter-spacing:0px;word-spacing:0px;fill:#000000;fill-opacity:1;stroke:none;stroke-width:1px;stroke-linecap:butt;stroke-linejoin:miter;stroke-opacity:1"
         x="344.17783"
         y="349.5239"
         id="text3543"
         sodipodi:linespacing="125%"><tspan
           sodipodi:role="line"
           id="tspan3545"
           x="344.17783"
           y="349.5239"
           style="fill:#ff8080">video processing in python</tspan></text>
    </g>
  </g>
</svg>
