<?xml version="1.0" encoding="UTF-8" standalone="no"?>
<!-- Created with Inkscape (http://www.inkscape.org/) -->

<svg
   xmlns:dc="http://purl.org/dc/elements/1.1/"
   xmlns:cc="http://creativecommons.org/ns#"
   xmlns:rdf="http://www.w3.org/1999/02/22-rdf-syntax-ns#"
   xmlns:svg="http://www.w3.org/2000/svg"
   xmlns="http://www.w3.org/2000/svg"
   xmlns:xlink="http://www.w3.org/1999/xlink"
   xmlns:sodipodi="http://sodipodi.sourceforge.net/DTD/sodipodi-0.dtd"
   xmlns:inkscape="http://www.inkscape.org/namespaces/inkscape"
   width="241.28542mm"
   height="66.594315mm"
   viewBox="0 0 854.94832 235.96411"
   id="svg2"
   version="1.1"
   inkscape:version="0.91 r13725"
   sodipodi:docname="scikit-video.svg"
   inkscape:export-filename="/home/leo/scikit-video.png"
   inkscape:export-xdpi="90"
   inkscape:export-ydpi="90">
  <defs
     id="defs4">
    <pattern
       xlink:href="#pattern1929"
       id="pattern1980"
       patternTransform="translate(-50.07238,-102.2896)" />
    <pattern
       xlink:href="#pattern1929"
       id="pattern1976"
       patternTransform="translate(86.65527,-50.07244)" />
    <pattern
       xlink:href="#pattern1929"
       id="pattern1968"
       patternTransform="translate(34.43797,86.65526)" />
    <pattern
       patternUnits="userSpaceOnUse"
       width="8.6623106"
       height="6.9721041"
       patternTransform="translate(34.43797,86.65526)"
       id="pattern1929">
      <rect
         y="0"
         x="0"
         height="6.9721041"
         width="8.6623106"
         id="rect1927"
         style="fill:#4bffff;fill-opacity:1;stroke:none;stroke-width:3;stroke-linecap:round;stroke-linejoin:round;stroke-miterlimit:4;stroke-dasharray:none;stroke-opacity:1" />
    </pattern>
  </defs>
  <sodipodi:namedview
     id="base"
     pagecolor="#ffffff"
     bordercolor="#666666"
     borderopacity="1.0"
     inkscape:pageopacity="0.0"
     inkscape:pageshadow="2"
     inkscape:zoom="1.2763278"
     inkscape:cx="316.37701"
     inkscape:cy="90.435631"
     inkscape:document-units="px"
     inkscape:current-layer="layer4"
     showgrid="false"
     fit-margin-top="0"
     fit-margin-left="0"
     fit-margin-right="0"
     fit-margin-bottom="0"
     inkscape:window-width="1857"
     inkscape:window-height="1005"
     inkscape:window-x="63"
     inkscape:window-y="29"
     inkscape:window-maximized="1" />
  <metadata
     id="metadata7">
    <rdf:RDF>
      <cc:Work
         rdf:about="">
        <dc:format>image/svg+xml</dc:format>
        <dc:type
           rdf:resource="http://purl.org/dc/dcmitype/StillImage" />
        <dc:title />
      </cc:Work>
    </rdf:RDF>
  </metadata>
  <g
     inkscape:groupmode="layer"
     id="layer2"
     inkscape:label="gear"
     transform="translate(-62.548997,-179.46711)">
    <path
       style="fill:#d32f2f;fill-opacity:1;fill-rule:nonzero;stroke-width:0;stroke-linecap:butt;stroke-linejoin:miter;stroke-miterlimit:4"
       d="M 111.18164 0.0078125 C 99.386735 0.46546041 99.513475 22.447541 84.267578 19.167969 C 73.059518 16.198049 60.564088 6.7180219 51.210938 19.482422 C 42.916138 28.359332 52.041848 42.196953 39.205078 48.376953 C 30.908978 55.637563 18.007353 46.407384 13.908203 60.277344 C 5.7464931 73.830784 26.375026 84.201669 14.941406 97.537109 C 7.5542363 105.92345 -5.5261675 112.01 2.5390625 125.42773 C 8.7930225 132.77323 18.936478 135.44547 18.048828 147.57812 C 19.256198 158.23667 5.0831713 166.53445 15.769531 176.77344 C 23.502991 189.19743 40.011105 178.17727 45.390625 193.1875 C 51.618065 202.70312 43.507482 216.3577 58.476562 220.07422 C 71.966512 226.45059 84.806151 207.49141 97.769531 220.75195 C 103.79564 227.38142 104.86536 238.35396 117.04297 235.5 C 131.33166 235.02485 128.58766 221.62441 142.83984 217.05078 C 158.69155 212.16247 165.07593 230.30992 177.06836 218.16211 C 189.16579 210.90186 178.88675 197.85767 187.76953 190.51758 C 198.65757 177.61289 218.47432 188.95455 220.68555 169.23242 C 222.72792 158.48095 211.23509 155.93888 214.22266 142.69141 C 218.51819 128.92339 239.92032 127.89601 230.40039 111.66406 C 225.88562 103.46543 215.52613 103.15537 214.25781 93.660156 C 214.08725 93.660728 214.02569 93.66153 213.85156 93.662109 C 207.33797 93.683745 201.57732 93.647382 198.43555 93.580078 C 201.8183 104.81968 202.81585 116.73707 200.76953 128.58594 C 195.6926 169.99629 157.33922 205.78438 114.88281 203.76953 C 75.103332 203.37985 37.518402 172.06565 32.169922 132.22266 C 25.616522 94.891886 45.609809 53.663746 81.074219 38.691406 C 92.003349 33.614836 104.04244 30.812729 116.11328 30.974609 C 144.92698 30.087461 171.6371 46.591938 187.34375 70.166016 C 187.97404 64.979356 190.03195 60.19081 194.07812 57.365234 C 195.71038 56.723414 196.088 56.710938 213.22656 56.710938 C 214.71304 56.710938 215.44157 56.714281 216.6875 56.714844 C 216.00535 56.012354 215.20681 55.310888 214.27539 54.611328 C 205.56192 47.029008 196.91462 55.061142 187.36328 45.357422 C 179.31324 33.434802 188.83236 22.668292 174.88281 15.232422 C 162.05632 9.1299419 156.8999 21.558525 143.17578 18.203125 C 128.7955 12.645605 130.30189 -0.93373313 113.70703 0.21679688 C 112.80665 0.042105625 111.96797 -0.022697361 111.18164 0.0078125 z "
       transform="translate(62.548997,179.46711)"
       id="path2125-5" />
  </g>
  <g
     style="display:none"
     transform="translate(-62.548997,-179.46711)"
     inkscape:label="camera_bg copy"
     id="g4398"
     inkscape:groupmode="layer">
    <path
       style="fill:#ffffff;fill-opacity:1;stroke:none;stroke-width:1;stroke-miterlimit:4;stroke-dasharray:none;stroke-opacity:1"
       d="m 275.7752,236.17863 c -17.13856,0 -17.51586,0.0122 -19.14811,0.65402 -11.94906,8.34442 -6.60454,33.79941 1.86899,36.11454 0.57387,0.13037 8.63178,0.21221 17.90451,0.18141 16.51868,-0.055 16.89386,-0.0689 18.57762,-0.72325 5.57558,-3.32109 6.18057,-6.82175 6.39941,-12.33098 l 8.60236,4.93766 0.0457,-22.56406 -8.64802,6.72759 c -0.0229,-5.24798 -2.21638,-10.52711 -6.39941,-12.32859 -1.69425,-0.65801 -1.96595,-0.66834 -19.20301,-0.66834 z m 15.95198,5.10091 c 2.7095,-1.3e-4 4.90639,2.19569 4.90757,4.90518 1.4e-4,2.71043 -2.19714,4.9077 -4.90757,4.90756 -2.71043,1.4e-4 -4.9077,-2.19713 -4.90756,-4.90756 0.001,-2.70949 2.19806,-4.90531 4.90756,-4.90518 z"
       id="path4400"
       inkscape:connector-curvature="0"
       sodipodi:nodetypes="sccsccccccsccccc" />
  </g>
  <g
     inkscape:label="main"
     inkscape:groupmode="layer"
     id="layer1"
     style="display:inline"
     transform="translate(-62.548997,-179.46711)">
    <path
       style="fill:#e57373;fill-opacity:1"
       d="m 252.29297,272.05859 c -8.68962,7.237 -24.69365,14.52256 -33.72183,11.24752 -8.39626,-2.11339 -12.78629,-10.63189 -18.28012,-16.57564 -5.95763,-7.27522 -12.35914,-17.38578 -23.1543,-16.45313 -13.17399,-0.65893 -23.98481,13.43958 -20.02493,25.98747 1.63471,8.88319 10.47091,12.55487 18.27973,14.38967 11.91395,3.27069 26.23488,4.77178 33.53544,16.16606 8.68678,12.79781 3.52496,31.87369 -9.70254,39.4861 -10.98161,6.54291 -26.70073,5.49016 -35.36552,-4.49316 -6.46279,-6.1368 -7.62567,-18.17183 -17.2788,-20.23627 -9.63453,-0.10964 -30.61668,16.66143 -27.84572,23.21771 21.67394,28.4427 63.99851,37.58467 95.52539,20.82031 33.58566,-16.37544 50.85924,-58.38161 38.0332,-93.55664 z"
       id="path4159"
       inkscape:connector-curvature="0"
       sodipodi:nodetypes="ccccccccccccc" />
    <path
       style="fill:#f44336;fill-opacity:1"
       d="m 179.23047,219.55859 c -35.69478,-0.63304 -69.26502,26.7171 -75.69141,61.88672 -3.32349,16.22199 -1.33088,37.96014 7.76616,50.10418 8.94492,-6.83538 17.95276,-13.68158 27.60494,-19.48894 6.76959,-2.83255 12.74493,0.10594 18.60759,6.19749 6.71283,7.0926 11.25878,16.99646 20.50965,21.19502 12.23486,4.47798 27.62772,-6.89635 24.94706,-20.25087 -0.78801,-10.11997 -10.3985,-15.16183 -19.2461,-16.96988 -10.38702,-3.51633 -22.7276,-4.22834 -30.72881,-12.51734 -9.82823,-12.1862 -8.38013,-32.19894 4.09934,-42.09307 8.29027,-7.87071 20.8334,-8.96414 31.34219,-5.6405 12.34608,5.41503 18.33381,18.56438 27.11617,28.01775 9.73445,10.50052 21.06866,-2.34826 33.61658,-5.7472 -11.93365,-26.90336 -40.57016,-44.98464 -69.94336,-44.69336 z"
       id="path4157"
       inkscape:connector-curvature="0"
       sodipodi:nodetypes="cccccccccccccc" />
    <path
       style="fill:#d32f2f;fill-opacity:1;stroke:none;stroke-width:1;stroke-miterlimit:4;stroke-dasharray:none;stroke-opacity:1"
       d="m 274.51569,239.53702 c -14.02366,0 -14.33238,0.01 -15.66797,0.53515 -9.77734,6.82784 -5.40418,27.65642 1.5293,29.55078 0.46957,0.10668 7.06297,0.17364 14.65039,0.14844 13.51644,-0.045 13.82343,-0.0564 15.20117,-0.5918 4.56223,-2.71749 5.05726,-5.58191 5.23633,-10.08984 l 7.03889,4.04024 0.0374,-18.46307 -7.07626,5.50486 c -0.0187,-4.29417 -1.81356,-8.61383 -5.23633,-10.08789 -1.38632,-0.53842 -1.60864,-0.54687 -15.71289,-0.54687 z m 13.05273,4.17383 c 2.21705,-1.1e-4 4.01466,1.79662 4.01563,4.01367 1.1e-4,2.21781 -1.79782,4.01573 -4.01563,4.01562 -2.21781,1.1e-4 -4.01573,-1.79781 -4.01562,-4.01562 9.7e-4,-2.21705 1.79857,-4.01378 4.01562,-4.01367 z"
       id="path4202"
       inkscape:connector-curvature="0"
       sodipodi:nodetypes="sccsccccccsccccc" />
  </g>
  <g
     inkscape:groupmode="layer"
     id="layer4"
     inkscape:label="text"
     transform="translate(-62.548997,-179.46711)">
    <g
       style="font-style:normal;font-weight:normal;font-size:110.5602417px;line-height:125%;font-family:sans-serif;letter-spacing:0px;word-spacing:0px;fill:#000000;fill-opacity:1;stroke:none;stroke-width:1px;stroke-linecap:butt;stroke-linejoin:miter;stroke-opacity:1"
       id="text4360">
      <path
         d="m 387.60074,294.04617 q 0,8.25962 -6.15423,12.74034 -6.15423,4.48071 -17.27504,4.48071 -11.76862,0 -18.35473,-3.72493 l 0,-8.31361 q 4.26478,2.15938 9.12338,3.40102 4.91259,1.24164 9.44729,1.24164 7.01798,0 10.7969,-2.21336 3.77891,-2.26735 3.77891,-6.85603 0,-3.45501 -3.02313,-5.88431 -2.96915,-2.48329 -11.66065,-5.83032 -8.25963,-3.07712 -11.76862,-5.34447 -3.45501,-2.32133 -5.18251,-5.2365 -1.67352,-2.91516 -1.67352,-6.964 0,-7.23392 5.88431,-11.39072 5.88431,-4.21079 16.14136,-4.21079 9.55526,0 18.67864,3.88688 l -3.18509,7.28791 q -8.90744,-3.67095 -16.14136,-3.67095 -6.37017,0 -9.60924,1.99743 -3.23907,1.99742 -3.23907,5.50642 0,2.37531 1.18766,4.04883 1.24164,1.67352 3.94087,3.18509 2.69922,1.51156 10.36502,4.37274 10.52698,3.8329 14.19792,7.71978 3.72493,3.88689 3.72493,9.7712 z"
         style="fill:#f44336;fill-opacity:1"
         id="path4281" />
      <path
         d="m 425.76778,311.26722 q -12.84831,0 -19.92028,-7.88174 -7.01798,-7.93572 -7.01798,-22.40356 0,-14.84574 7.12595,-22.94341 7.17994,-8.09767 20.40614,-8.09767 4.26477,0 8.52955,0.91773 4.26477,0.91774 6.69407,2.15938 l -2.7532,7.61182 q -2.96915,-1.18766 -6.47814,-1.94345 -3.509,-0.80976 -6.20822,-0.80976 -18.03082,0 -18.03082,22.99739 0,10.90487 4.37274,16.73519 4.42673,5.83033 13.06425,5.83033 7.39588,0 15.16964,-3.18509 l 0,7.93572 q -5.93829,3.07712 -14.9537,3.07712 z"
         style="fill:#f44336;fill-opacity:1"
         id="path4283" />
      <path
         d="m 463.77286,310.18753 -8.96142,0 0,-59.167 8.96142,0 0,59.167 z m -9.71721,-75.2004 q 0,-3.07711 1.51157,-4.48071 1.51156,-1.45758 3.77891,-1.45758 2.15938,0 3.72493,1.45758 1.56555,1.45758 1.56555,4.48071 0,3.02313 -1.56555,4.5347 -1.56555,1.45758 -3.72493,1.45758 -2.26735,0 -3.77891,-1.45758 -1.51157,-1.51157 -1.51157,-4.5347 z"
         style="fill:#f44336;fill-opacity:1"
         id="path4285" />
      <path
         d="m 491.73682,279.90223 q 2.32134,-3.29305 7.07197,-8.63752 l 19.11051,-20.24418 10.63495,0 -23.96912,25.21075 25.64264,33.95625 -10.85089,0 -20.892,-27.96397 -6.74806,5.83033 0,22.13364 -8.85345,0 0,-83.99987 8.85345,0 0,44.53721 q 0,2.96914 -0.43187,9.17736 l 0.43187,0 z"
         style="fill:#f44336;fill-opacity:1"
         id="path4287" />
      <path
         d="m 549.93212,310.18753 -8.96143,0 0,-59.167 8.96143,0 0,59.167 z m -9.71721,-75.2004 q 0,-3.07711 1.51157,-4.48071 1.51156,-1.45758 3.77891,-1.45758 2.15938,0 3.72493,1.45758 1.56555,1.45758 1.56555,4.48071 0,3.02313 -1.56555,4.5347 -1.56555,1.45758 -3.72493,1.45758 -2.26735,0 -3.77891,-1.45758 -1.51157,-1.51157 -1.51157,-4.5347 z"
         style="fill:#f44336;fill-opacity:1"
         id="path4289" />
      <path
         d="m 588.15313,303.87134 q 2.37532,0 4.58868,-0.3239 2.21337,-0.37789 3.509,-0.75579 l 0,6.85604 q -1.45758,0.70179 -4.31876,1.13367 -2.8072,0.48586 -5.07455,0.48586 -17.16706,0 -17.16706,-18.0848 l 0,-35.19789 -8.47557,0 0,-4.31876 8.47557,-3.72493 3.77891,-12.63238 5.18251,0 0,13.71207 17.16707,0 0,6.964 -17.16707,0 0,34.81999 q 0,5.34447 2.53727,8.20565 2.53727,2.86117 6.964,2.86117 z"
         style="fill:#f44336;fill-opacity:1"
         id="path4291" />
      <path
         d="m 603.16083,284.65287 0,-8.20565 26.50638,0 0,8.20565 -26.50638,0 z"
         style="fill:#e57373;fill-opacity:1"
         id="path4293" />
      <path
         d="m 656.71344,310.18753 -22.45755,-59.167 9.60924,0 12.74034,35.08992 q 4.31876,12.30846 5.07454,15.97941 l 0.43188,0 q 0.59383,-2.86118 3.72493,-11.82261 3.18508,-9.01541 14.19792,-39.24672 l 9.60924,0 -22.45755,59.167 -10.47299,0 z"
         style="fill:#d32f2f;fill-opacity:1"
         id="path4295" />
      <path
         d="m 708.21465,310.18753 -8.96143,0 0,-59.167 8.96143,0 0,59.167 z m -9.71721,-75.2004 q 0,-3.07711 1.51157,-4.48071 1.51156,-1.45758 3.77891,-1.45758 2.15938,0 3.72493,1.45758 1.56555,1.45758 1.56555,4.48071 0,3.02313 -1.56555,4.5347 -1.56555,1.45758 -3.72493,1.45758 -2.26735,0 -3.77891,-1.45758 -1.51157,-1.51157 -1.51157,-4.5347 z"
         style="fill:#d32f2f;fill-opacity:1"
         id="path4297" />
      <path
         d="m 767.59759,302.25181 -0.48586,0 q -6.20822,9.01541 -18.57067,9.01541 -11.60667,0 -18.08481,-7.93572 -6.42415,-7.93572 -6.42415,-22.56552 0,-14.6298 6.47814,-22.72747 6.47814,-8.09767 18.03082,-8.09767 12.03854,0 18.4627,8.74548 l 0.70179,0 -0.37789,-4.26477 -0.21593,-4.15681 0,-24.07708 8.96142,0 0,83.99987 -7.28791,0 -1.18765,-7.93572 z m -17.92286,1.51157 q 9.17737,0 13.28019,-4.96658 4.15681,-5.02056 4.15681,-16.14136 l 0,-1.88946 q 0,-12.57839 -4.2108,-17.92285 -4.1568,-5.39845 -13.33417,-5.39845 -7.88173,0 -12.09252,6.15423 -4.15681,6.10025 -4.15681,17.27504 0,11.33674 4.15681,17.11309 4.1568,5.77634 12.20049,5.77634 z"
         style="fill:#d32f2f;fill-opacity:1"
         id="path4299" />
      <path
         d="m 820.12451,311.26722 q -13.11823,0 -20.73005,-7.9897 -7.55783,-7.98971 -7.55783,-22.18763 0,-14.30589 7.01799,-22.72747 7.07197,-8.42158 18.94856,-8.42158 11.1208,0 17.59894,7.34189 6.47814,7.2879 6.47814,19.27246 l 0,5.66837 -40.75829,0 q 0.26992,10.41901 5.23649,15.81746 5.02056,5.39845 14.08996,5.39845 9.55525,0 18.89457,-3.99485 l 0,7.9897 q -4.75064,2.05141 -9.01541,2.91516 -4.21079,0.91774 -10.20307,0.91774 z m -2.4293,-53.82254 q -7.12596,0 -11.39073,4.64267 -4.21079,4.64266 -4.96657,12.84831 l 30.93311,0 q 0,-8.47557 -3.77891,-12.95628 -3.77892,-4.5347 -10.7969,-4.5347 z"
         style="fill:#d32f2f;fill-opacity:1"
         id="path4301" />
      <path
         d="m 908.1732,280.55004 q 0,14.46785 -7.28791,22.61951 -7.2879,8.09767 -20.13621,8.09767 -7.93572,0 -14.08995,-3.72493 -6.15424,-3.72493 -9.50127,-10.68893 -3.34704,-6.964 -3.34704,-16.30332 0,-14.46784 7.23392,-22.51153 7.23392,-8.09767 20.08223,-8.09767 12.41643,0 19.70434,8.25962 7.34189,8.25963 7.34189,22.34958 z m -45.07705,0 q 0,11.33675 4.5347,17.27504 4.53469,5.9383 13.33417,5.9383 8.79947,0 13.33417,-5.88431 4.58868,-5.9383 4.58868,-17.32903 0,-11.28276 -4.58868,-17.11308 -4.5347,-5.88431 -13.44214,-5.88431 -8.79947,0 -13.28019,5.77634 -4.48071,5.77634 -4.48071,17.22105 z"
         style="fill:#d32f2f;fill-opacity:1"
         id="path4303" />
    </g>
    <g
       style="font-style:normal;font-weight:normal;font-size:40.48044968px;line-height:125%;font-family:sans-serif;letter-spacing:0px;word-spacing:0px;fill:#000000;fill-opacity:1;stroke:none;stroke-width:1px;stroke-linecap:butt;stroke-linejoin:miter;stroke-opacity:1"
       id="text4367">
      <path
         d="m 345.36923,337.42027 3.85434,0 6.91804,18.57989 6.91805,-18.57989 3.85434,0 -8.30165,22.13774 -4.94147,0 -8.30165,-22.13774 z"
         style="fill:#e57373;fill-opacity:1"
         id="path4306" />
      <path
         d="m 371.93452,337.42027 3.63692,0 0,22.13774 -3.63692,0 0,-22.13774 z m 0,-8.61791 3.63692,0 0,4.60544 -3.63692,0 0,-4.60544 z"
         style="fill:#e57373;fill-opacity:1"
         id="path4308" />
      <path
         d="m 397.72895,340.78046 0,-11.9781 3.63692,0 0,30.75565 -3.63692,0 0,-3.32066 q -1.14642,1.97659 -2.90558,2.94511 -1.73939,0.94876 -4.19035,0.94876 -4.01247,0 -6.5425,-3.20206 -2.51026,-3.20207 -2.51026,-8.42025 0,-5.21819 2.51026,-8.42025 2.53003,-3.20207 6.5425,-3.20207 2.45096,0 4.19035,0.96853 1.75916,0.94876 2.90558,2.92534 z m -12.39318,7.72845 q 0,4.01246 1.64056,6.3053 1.66033,2.27307 4.54615,2.27307 2.88581,0 4.54614,-2.27307 1.66033,-2.29284 1.66033,-6.3053 0,-4.01247 -1.66033,-6.28554 -1.66033,-2.29284 -4.54614,-2.29284 -2.88582,0 -4.54615,2.29284 -1.64056,2.27307 -1.64056,6.28554 z"
         style="fill:#e57373;fill-opacity:1"
         id="path4310" />
      <path
         d="m 427.7928,347.57991 0,1.77893 -16.7219,0 q 0.23719,3.75551 2.2533,5.73209 2.03588,1.95682 5.65303,1.95682 2.09518,0 4.052,-0.51391 1.97659,-0.51391 3.91364,-1.54174 l 0,3.43926 q -1.95682,0.83017 -4.01247,1.26501 -2.05565,0.43485 -4.17059,0.43485 -5.29725,0 -8.40049,-3.08347 -3.08347,-3.08347 -3.08347,-8.34118 0,-5.43561 2.92535,-8.61791 2.94511,-3.20207 7.9261,-3.20207 4.46708,0 7.05641,2.88581 2.60909,2.86605 2.60909,7.80751 z m -3.63692,-1.06735 q -0.0395,-2.98465 -1.68009,-4.76357 -1.6208,-1.77893 -4.30896,-1.77893 -3.04394,0 -4.88216,1.71963 -1.81846,1.71963 -2.09518,4.84263 l 12.96639,-0.0198 z"
         style="fill:#e57373;fill-opacity:1"
         id="path4312" />
      <path
         d="m 442.34047,339.97006 q -2.92535,0 -4.62521,2.29284 -1.69986,2.27307 -1.69986,6.24601 0,3.97293 1.68009,6.26577 1.69986,2.27307 4.64498,2.27307 2.90557,0 4.60544,-2.29284 1.69986,-2.29283 1.69986,-6.246 0,-3.93341 -1.69986,-6.22624 -1.69987,-2.31261 -4.60544,-2.31261 z m 0,-3.08347 q 4.7438,0 7.45172,3.08347 2.70792,3.08347 2.70792,8.53885 0,5.4356 -2.70792,8.53884 -2.70792,3.08347 -7.45172,3.08347 -4.76357,0 -7.47149,-3.08347 -2.68816,-3.10324 -2.68816,-8.53884 0,-5.45538 2.68816,-8.53885 2.70792,-3.08347 7.47149,-3.08347 z"
         style="fill:#e57373;fill-opacity:1"
         id="path4314" />
      <path
         d="m 474.91458,356.23735 0,11.74091 -3.65668,0 0,-30.55799 3.65668,0 0,3.36019 q 1.14642,-1.97658 2.88581,-2.92534 1.75916,-0.96853 4.19036,-0.96853 4.03223,0 6.5425,3.20207 2.53002,3.20206 2.53002,8.42025 0,5.21818 -2.53002,8.42025 -2.51027,3.20206 -6.5425,3.20206 -2.4312,0 -4.19036,-0.94876 -1.73939,-0.96852 -2.88581,-2.94511 z m 12.37342,-7.72844 q 0,-4.01247 -1.66033,-6.28554 -1.64057,-2.29284 -4.52638,-2.29284 -2.88581,0 -4.54615,2.29284 -1.64056,2.27307 -1.64056,6.28554 0,4.01246 1.64056,6.3053 1.66034,2.27307 4.54615,2.27307 2.88581,0 4.52638,-2.27307 1.66033,-2.29284 1.66033,-6.3053 z"
         style="fill:#e57373;fill-opacity:1"
         id="path4316" />
      <path
         d="m 509.91988,340.81999 q -0.61274,-0.35578 -1.34408,-0.51391 -0.71157,-0.17789 -1.58127,-0.17789 -3.08347,0 -4.7438,2.01611 -1.64056,1.99636 -1.64056,5.75187 l 0,11.66184 -3.65668,0 0,-22.13774 3.65668,0 0,3.43925 q 1.14642,-2.01611 2.98464,-2.98464 1.83822,-0.98829 4.46708,-0.98829 0.37555,0 0.83017,0.0593 0.45461,0.0395 1.00805,0.13836 l 0.0198,3.73574 z"
         style="fill:#e57373;fill-opacity:1"
         id="path4318" />
      <path
         d="m 521.48291,339.97006 q -2.92535,0 -4.62521,2.29284 -1.69986,2.27307 -1.69986,6.24601 0,3.97293 1.68009,6.26577 1.69987,2.27307 4.64498,2.27307 2.90558,0 4.60544,-2.29284 1.69986,-2.29283 1.69986,-6.246 0,-3.93341 -1.69986,-6.22624 -1.69986,-2.31261 -4.60544,-2.31261 z m 0,-3.08347 q 4.7438,0 7.45172,3.08347 2.70792,3.08347 2.70792,8.53885 0,5.4356 -2.70792,8.53884 -2.70792,3.08347 -7.45172,3.08347 -4.76357,0 -7.47149,-3.08347 -2.68816,-3.10324 -2.68816,-8.53884 0,-5.45538 2.68816,-8.53885 2.70792,-3.08347 7.47149,-3.08347 z"
         style="fill:#e57373;fill-opacity:1"
         id="path4320" />
      <path
         d="m 553.58264,338.2702 0,3.39972 q -1.54173,-0.84993 -3.10324,-1.26501 -1.54173,-0.43485 -3.123,-0.43485 -3.53809,0 -5.4949,2.25331 -1.95682,2.23354 -1.95682,6.28554 0,4.05199 1.95682,6.3053 1.95681,2.23354 5.4949,2.23354 1.58127,0 3.123,-0.41508 1.56151,-0.43485 3.10324,-1.28478 l 0,3.36019 q -1.52197,0.71157 -3.16253,1.06736 -1.6208,0.35578 -3.45903,0.35578 -5.00075,0 -7.94587,-3.14277 -2.94511,-3.14277 -2.94511,-8.47954 0,-5.41584 2.96488,-8.51908 2.98464,-3.10324 8.16329,-3.10324 1.6801,0 3.28113,0.35579 1.60104,0.33601 3.10324,1.02782 z"
         style="fill:#e57373;fill-opacity:1"
         id="path4322" />
      <path
         d="m 578.88292,347.57991 0,1.77893 -16.72191,0 q 0.23719,3.75551 2.25331,5.73209 2.03588,1.95682 5.65303,1.95682 2.09518,0 4.052,-0.51391 1.97658,-0.51391 3.91364,-1.54174 l 0,3.43926 q -1.95682,0.83017 -4.01247,1.26501 -2.05565,0.43485 -4.17059,0.43485 -5.29725,0 -8.40049,-3.08347 -3.08347,-3.08347 -3.08347,-8.34118 0,-5.43561 2.92535,-8.61791 2.94511,-3.20207 7.9261,-3.20207 4.46708,0 7.05641,2.88581 2.60909,2.86605 2.60909,7.80751 z m -3.63692,-1.06735 q -0.0395,-2.98465 -1.68009,-4.76357 -1.6208,-1.77893 -4.30896,-1.77893 -3.04394,0 -4.88216,1.71963 -1.81846,1.71963 -2.09518,4.84263 l 12.96639,-0.0198 z"
         style="fill:#e57373;fill-opacity:1"
         id="path4324" />
      <path
         d="m 598.96502,338.07254 0,3.43926 q -1.54174,-0.79064 -3.20207,-1.18595 -1.66033,-0.39532 -3.43925,-0.39532 -2.70792,0 -4.07177,0.83017 -1.34407,0.83016 -1.34407,2.49049 0,1.26502 0.96852,1.99635 0.96853,0.71157 3.89387,1.36385 l 1.24525,0.27672 q 3.87411,0.83016 5.49491,2.35213 1.64056,1.50221 1.64056,4.21013 0,3.08347 -2.45096,4.88216 -2.4312,1.79869 -6.70063,1.79869 -1.77892,0 -3.71597,-0.35578 -1.91729,-0.33602 -4.052,-1.02783 l 0,-3.75551 q 2.01611,1.04759 3.97293,1.58127 1.95682,0.51391 3.87411,0.51391 2.56956,0 3.95317,-0.86969 1.38361,-0.88947 1.38361,-2.4905 0,-1.48244 -1.00806,-2.27307 -0.98829,-0.79064 -4.36825,-1.52197 l -1.26502,-0.29649 q -3.37996,-0.71157 -4.88216,-2.17424 -1.50221,-1.48244 -1.50221,-4.052 0,-3.123 2.21378,-4.82287 2.21377,-1.69986 6.28554,-1.69986 2.01611,0 3.79504,0.29649 1.77893,0.29649 3.28113,0.88946 z"
         style="fill:#e57373;fill-opacity:1"
         id="path4326" />
      <path
         d="m 620.07493,338.07254 0,3.43926 q -1.54174,-0.79064 -3.20207,-1.18595 -1.66033,-0.39532 -3.43925,-0.39532 -2.70793,0 -4.07177,0.83017 -1.34408,0.83016 -1.34408,2.49049 0,1.26502 0.96853,1.99635 0.96853,0.71157 3.89387,1.36385 l 1.24525,0.27672 q 3.87411,0.83016 5.4949,2.35213 1.64057,1.50221 1.64057,4.21013 0,3.08347 -2.45096,4.88216 -2.4312,1.79869 -6.70063,1.79869 -1.77892,0 -3.71597,-0.35578 -1.91729,-0.33602 -4.052,-1.02783 l 0,-3.75551 q 2.01611,1.04759 3.97293,1.58127 1.95682,0.51391 3.87411,0.51391 2.56956,0 3.95317,-0.86969 1.38361,-0.88947 1.38361,-2.4905 0,-1.48244 -1.00806,-2.27307 -0.98829,-0.79064 -4.36825,-1.52197 l -1.26502,-0.29649 q -3.37996,-0.71157 -4.88216,-2.17424 -1.50221,-1.48244 -1.50221,-4.052 0,-3.123 2.21378,-4.82287 2.21377,-1.69986 6.28554,-1.69986 2.01611,0 3.79504,0.29649 1.77893,0.29649 3.28113,0.88946 z"
         style="fill:#e57373;fill-opacity:1"
         id="path4328" />
      <path
         d="m 627.07204,337.42027 3.63692,0 0,22.13774 -3.63692,0 0,-22.13774 z m 0,-8.61791 3.63692,0 0,4.60544 -3.63692,0 0,-4.60544 z"
         style="fill:#e57373;fill-opacity:1"
         id="path4330" />
      <path
         d="m 656.70106,346.1963 0,13.36171 -3.63691,0 0,-13.24311 q 0,-3.14277 -1.22549,-4.70427 -1.22548,-1.5615 -3.67644,-1.5615 -2.94511,0 -4.64498,1.87775 -1.69986,1.87776 -1.69986,5.11935 l 0,12.51178 -3.65668,0 0,-22.13774 3.65668,0 0,3.43925 q 1.30455,-1.99635 3.06371,-2.98464 1.77892,-0.98829 4.09153,-0.98829 3.81481,0 5.77162,2.3719 1.95682,2.35214 1.95682,6.93781 z"
         style="fill:#e57373;fill-opacity:1"
         id="path4332" />
      <path
         d="m 678.56208,348.23218 q 0,-3.95316 -1.64057,-6.12741 -1.6208,-2.17424 -4.56591,-2.17424 -2.92534,0 -4.56591,2.17424 -1.6208,2.17425 -1.6208,6.12741 0,3.93341 1.6208,6.10765 1.64057,2.17424 4.56591,2.17424 2.94511,0 4.56591,-2.17424 1.64057,-2.17424 1.64057,-6.10765 z m 3.63691,8.57838 q 0,5.65303 -2.51026,8.40049 -2.51026,2.76721 -7.68891,2.76721 -1.91729,0 -3.61715,-0.29648 -1.69987,-0.27673 -3.3009,-0.8697 l 0,-3.53809 q 1.60103,0.8697 3.16253,1.28478 1.56151,0.41509 3.18231,0.41509 3.57761,0 5.35654,-1.87776 1.77893,-1.85799 1.77893,-5.63327 l 0,-1.79869 q -1.12666,1.95682 -2.88582,2.92535 -1.75916,0.96852 -4.21012,0.96852 -4.07177,0 -6.56226,-3.10323 -2.4905,-3.10324 -2.4905,-8.2226 0,-5.13911 2.4905,-8.24235 2.49049,-3.10324 6.56226,-3.10324 2.45096,0 4.21012,0.96853 1.75916,0.96852 2.88582,2.92534 l 0,-3.36019 3.63691,0 0,19.39029 z"
         style="fill:#e57373;fill-opacity:1"
         id="path4334" />
      <path
         d="m 713.7848,328.80236 0,3.02417 -3.47879,0 q -1.95682,0 -2.72769,0.79064 -0.7511,0.79063 -0.7511,2.84628 l 0,1.95682 5.98905,0 0,2.82651 -5.98905,0 0,19.31123 -3.65668,0 0,-19.31123 -3.47879,0 0,-2.82651 3.47879,0 0,-1.54174 q 0,-3.69621 1.71963,-5.37631 1.71963,-1.69986 5.45537,-1.69986 l 3.43926,0 z"
         style="fill:#e57373;fill-opacity:1"
         id="path4336" />
      <path
         d="m 725.38736,339.97006 q -2.92535,0 -4.62521,2.29284 -1.69986,2.27307 -1.69986,6.24601 0,3.97293 1.68009,6.26577 1.69986,2.27307 4.64498,2.27307 2.90557,0 4.60544,-2.29284 1.69986,-2.29283 1.69986,-6.246 0,-3.93341 -1.69986,-6.22624 -1.69987,-2.31261 -4.60544,-2.31261 z m 0,-3.08347 q 4.7438,0 7.45172,3.08347 2.70792,3.08347 2.70792,8.53885 0,5.4356 -2.70792,8.53884 -2.70792,3.08347 -7.45172,3.08347 -4.76357,0 -7.47149,-3.08347 -2.68816,-3.10324 -2.68816,-8.53884 0,-5.45538 2.68816,-8.53885 2.70792,-3.08347 7.47149,-3.08347 z"
         style="fill:#e57373;fill-opacity:1"
         id="path4338" />
      <path
         d="m 754.38387,340.81999 q -0.61274,-0.35578 -1.34408,-0.51391 -0.71157,-0.17789 -1.58127,-0.17789 -3.08347,0 -4.7438,2.01611 -1.64056,1.99636 -1.64056,5.75187 l 0,11.66184 -3.65669,0 0,-22.13774 3.65669,0 0,3.43925 q 1.14642,-2.01611 2.98464,-2.98464 1.83822,-0.98829 4.46708,-0.98829 0.37555,0 0.83017,0.0593 0.45461,0.0395 1.00805,0.13836 l 0.0198,3.73574 z"
         style="fill:#e57373;fill-opacity:1"
         id="path4340" />
      <path
         d="m 774.64386,356.23735 0,11.74091 -3.65668,0 0,-30.55799 3.65668,0 0,3.36019 q 1.14642,-1.97658 2.88581,-2.92534 1.75916,-0.96853 4.19036,-0.96853 4.03223,0 6.5425,3.20207 2.53002,3.20206 2.53002,8.42025 0,5.21818 -2.53002,8.42025 -2.51027,3.20206 -6.5425,3.20206 -2.4312,0 -4.19036,-0.94876 -1.73939,-0.96852 -2.88581,-2.94511 z m 12.37342,-7.72844 q 0,-4.01247 -1.66033,-6.28554 -1.64057,-2.29284 -4.52638,-2.29284 -2.88582,0 -4.54615,2.29284 -1.64056,2.27307 -1.64056,6.28554 0,4.01246 1.64056,6.3053 1.66033,2.27307 4.54615,2.27307 2.88581,0 4.52638,-2.27307 1.66033,-2.29284 1.66033,-6.3053 z"
         style="fill:#e57373;fill-opacity:1"
         id="path4342" />
      <path
         d="m 806.03201,361.61366 q -1.54174,3.95317 -3.00441,5.15889 -1.46267,1.20571 -3.91364,1.20571 l -2.90558,0 0,-3.04394 2.13472,0 q 1.5022,0 2.33236,-0.71157 0.83017,-0.71157 1.83823,-3.36019 l 0.65227,-1.66033 -8.95393,-21.78196 3.85434,0 6.91805,17.31488 6.91804,-17.31488 3.85434,0 -9.72479,24.19339 z"
         style="fill:#e57373;fill-opacity:1"
         id="path4344" />
      <path
         d="m 824.37472,331.13473 0,6.28554 7.49125,0 0,2.82651 -7.49125,0 0,12.01764 q 0,2.70792 0.73133,3.47879 0.7511,0.77086 3.02418,0.77086 l 3.73574,0 0,3.04394 -3.73574,0 q -4.21013,0 -5.81116,-1.5615 -1.60104,-1.58127 -1.60104,-5.73209 l 0,-12.01764 -2.66838,0 0,-2.82651 2.66838,0 0,-6.28554 3.65669,0 z"
         style="fill:#e57373;fill-opacity:1"
         id="path4346" />
      <path
         d="m 855.07106,346.1963 0,13.36171 -3.63692,0 0,-13.24311 q 0,-3.14277 -1.22548,-4.70427 -1.22548,-1.5615 -3.67645,-1.5615 -2.94511,0 -4.64497,1.87775 -1.69986,1.87776 -1.69986,5.11935 l 0,12.51178 -3.65668,0 0,-30.75565 3.65668,0 0,12.05716 q 1.30454,-1.99635 3.0637,-2.98464 1.77893,-0.98829 4.09153,-0.98829 3.81481,0 5.77163,2.3719 1.95682,2.35214 1.95682,6.93781 z"
         style="fill:#e57373;fill-opacity:1"
         id="path4348" />
      <path
         d="m 870.94305,339.97006 q -2.92534,0 -4.62521,2.29284 -1.69986,2.27307 -1.69986,6.24601 0,3.97293 1.6801,6.26577 1.69986,2.27307 4.64497,2.27307 2.90558,0 4.60544,-2.29284 1.69986,-2.29283 1.69986,-6.246 0,-3.93341 -1.69986,-6.22624 -1.69986,-2.31261 -4.60544,-2.31261 z m 0,-3.08347 q 4.7438,0 7.45172,3.08347 2.70792,3.08347 2.70792,8.53885 0,5.4356 -2.70792,8.53884 -2.70792,3.08347 -7.45172,3.08347 -4.76357,0 -7.47149,-3.08347 -2.68815,-3.10324 -2.68815,-8.53884 0,-5.45538 2.68815,-8.53885 2.70792,-3.08347 7.47149,-3.08347 z"
         style="fill:#e57373;fill-opacity:1"
         id="path4350" />
      <path
         d="m 905.5135,346.1963 0,13.36171 -3.63691,0 0,-13.24311 q 0,-3.14277 -1.22549,-4.70427 -1.22548,-1.5615 -3.67644,-1.5615 -2.94511,0 -4.64498,1.87775 -1.69986,1.87776 -1.69986,5.11935 l 0,12.51178 -3.65668,0 0,-22.13774 3.65668,0 0,3.43925 q 1.30455,-1.99635 3.06371,-2.98464 1.77892,-0.98829 4.09153,-0.98829 3.8148,0 5.77162,2.3719 1.95682,2.35214 1.95682,6.93781 z"
         style="fill:#e57373;fill-opacity:1"
         id="path4352" />
    </g>
  </g>
</svg>
